<svg id="visual" viewBox="0 0 900 600" width="900" height="600" xmlns="http://www.w3.org/2000/svg" xmlns:xlink="http://www.w3.org/1999/xlink" version="1.1"><rect x="0" y="0" width="900" height="600" fill="#000000"></rect><defs><linearGradient id="grad1_0" x1="33.3%" y1="0%" x2="100%" y2="100%"><stop offset="20%" stop-color="#009eff" stop-opacity="1"></stop><stop offset="80%" stop-color="#009eff" stop-opacity="1"></stop></linearGradient></defs><defs><linearGradient id="grad1_1" x1="33.3%" y1="0%" x2="100%" y2="100%"><stop offset="20%" stop-color="#009eff" stop-opacity="1"></stop><stop offset="80%" stop-color="#0069c3" stop-opacity="1"></stop></linearGradient></defs><defs><linearGradient id="grad1_2" x1="33.3%" y1="0%" x2="100%" y2="100%"><stop offset="20%" stop-color="#003989" stop-opacity="1"></stop><stop offset="80%" stop-color="#0069c3" stop-opacity="1"></stop></linearGradient></defs><defs><linearGradient id="grad1_3" x1="33.3%" y1="0%" x2="100%" y2="100%"><stop offset="20%" stop-color="#003989" stop-opacity="1"></stop><stop offset="80%" stop-color="#000000" stop-opacity="1"></stop></linearGradient></defs><defs><linearGradient id="grad2_0" x1="0%" y1="0%" x2="66.7%" y2="100%"><stop offset="20%" stop-color="#009eff" stop-opacity="1"></stop><stop offset="80%" stop-color="#009eff" stop-opacity="1"></stop></linearGradient></defs><defs><linearGradient id="grad2_1" x1="0%" y1="0%" x2="66.7%" y2="100%"><stop offset="20%" stop-color="#0069c3" stop-opacity="1"></stop><stop offset="80%" stop-color="#009eff" stop-opacity="1"></stop></linearGradient></defs><defs><linearGradient id="grad2_2" x1="0%" y1="0%" x2="66.7%" y2="100%"><stop offset="20%" stop-color="#0069c3" stop-opacity="1"></stop><stop offset="80%" stop-color="#003989" stop-opacity="1"></stop></linearGradient></defs><defs><linearGradient id="grad2_3" x1="0%" y1="0%" x2="66.7%" y2="100%"><stop offset="20%" stop-color="#000000" stop-opacity="1"></stop><stop offset="80%" stop-color="#003989" stop-opacity="1"></stop></linearGradient></defs><g transform="translate(900, 0)"><path d="M0 378.6C-64.4 366.2 -128.9 353.9 -187 323.9C-245.1 293.9 -297 246.2 -327.9 189.3C-358.7 132.4 -368.7 66.2 -378.6 0L0 0Z" fill="#00246e"></path><path d="M0 283.9C-48.3 274.7 -96.6 265.4 -140.2 242.9C-183.9 220.4 -222.7 184.7 -245.9 142C-269.1 99.3 -276.5 49.6 -283.9 0L0 0Z" fill="#0050a6"></path><path d="M0 189.3C-32.2 183.1 -64.4 176.9 -93.5 161.9C-122.6 146.9 -148.5 123.1 -163.9 94.6C-179.4 66.2 -184.3 33.1 -189.3 0L0 0Z" fill="#0083e1"></path><path d="M0 94.6C-16.1 91.6 -32.2 88.5 -46.7 81C-61.3 73.5 -74.2 61.6 -82 47.3C-89.7 33.1 -92.2 16.5 -94.6 0L0 0Z" fill="#009eff"></path></g><g transform="translate(0, 600)"><path d="M0 -378.6C65.2 -367.6 130.5 -356.7 188.5 -326.5C246.5 -296.3 297.4 -246.9 327.9 -189.3C358.3 -131.7 368.5 -65.8 378.6 0L0 0Z" fill="#00246e"></path><path d="M0 -283.9C48.9 -275.7 97.8 -267.5 141.4 -244.9C184.9 -222.2 223 -185.2 245.9 -142C268.8 -98.8 276.3 -49.4 283.9 0L0 0Z" fill="#0050a6"></path><path d="M0 -189.3C32.6 -183.8 65.2 -178.3 94.2 -163.2C123.3 -148.2 148.7 -123.5 163.9 -94.6C179.2 -65.8 184.2 -32.9 189.3 0L0 0Z" fill="#0083e1"></path><path d="M0 -94.6C16.3 -91.9 32.6 -89.2 47.1 -81.6C61.6 -74.1 74.3 -61.7 82 -47.3C89.6 -32.9 92.1 -16.5 94.6 0L0 0Z" fill="#009eff"></path></g></svg>